<svg width="13" height="13" viewBox="0 0 13 13" fill="none" xmlns="http://www.w3.org/2000/svg">
<g clip-path="url(#clip0)">
<path d="M9.23463 3.54785C8.49337 3.70263 7.69922 3.79425 6.88086 3.81603V6.07624H9.5597C9.53502 5.18599 9.42394 4.3301 9.23463 3.54785Z" fill="#549BE4"/>
<path d="M2.67813 6.07678C2.70325 5.12661 2.82214 4.20962 3.0259 3.36795C2.35863 3.18065 1.74812 2.9385 1.21866 2.64746C0.493498 3.64812 0.0714829 4.82927 0 6.07678H2.67813Z" fill="#549BE4"/>
<path d="M2.67813 6.83887H0C0.0714829 8.08638 0.493498 9.26753 1.21864 10.2682C1.74809 9.97716 2.35863 9.735 3.0259 9.5477C2.82214 8.70603 2.70322 7.78904 2.67813 6.83887Z" fill="#549BE4"/>
<path d="M7.59533 0.397841C7.36242 0.200812 7.12327 0.0680801 6.88086 0V3.05464C7.62883 3.03382 8.35241 2.9518 9.02697 2.81467C8.90318 2.43631 8.7593 2.08093 8.59604 1.75444C8.30275 1.1679 7.96605 0.711451 7.59533 0.397841Z" fill="#549BE4"/>
<path d="M3.23017 10.2793C2.67255 10.4359 2.16011 10.6334 1.70996 10.8679C1.7704 10.9334 1.83195 10.9981 1.89533 11.0615C2.62761 11.7938 3.50358 12.3301 4.45968 12.6442C4.19185 12.3277 3.94416 11.9454 3.72207 11.5012C3.53413 11.1253 3.36976 10.7156 3.23017 10.2793Z" fill="#549BE4"/>
<path d="M4.40359 1.75444C4.24036 2.08093 4.09645 2.43631 3.97266 2.81467C4.64721 2.9518 5.3708 3.03382 6.11877 3.05464V0C5.87634 0.0681055 5.63721 0.200812 5.4043 0.397841C5.03355 0.711451 4.69688 1.1679 4.40359 1.75444Z" fill="#549BE4"/>
<path d="M10.3214 6.83887C10.2963 7.78904 10.1774 8.70603 9.97363 9.5477C10.6409 9.735 11.2514 9.97716 11.7809 10.2682C12.506 9.26753 12.928 8.0864 12.9995 6.83887H10.3214Z" fill="#549BE4"/>
<path d="M9.76957 2.63543C10.3272 2.47883 10.8396 2.28137 11.2898 2.04681C11.2293 1.98132 11.1678 1.91659 11.1044 1.85321C10.3721 1.12096 9.49613 0.584677 8.54004 0.270508C8.80786 0.587064 9.05555 0.969364 9.27765 1.41352C9.46558 1.7894 9.62998 2.19915 9.76957 2.63543Z" fill="#549BE4"/>
<path d="M8.59604 11.1606C8.7593 10.8341 8.90318 10.4787 9.02697 10.1003C8.35242 9.9632 7.62883 9.88117 6.88086 9.86035V12.915C7.12329 12.8469 7.36242 12.7142 7.59533 12.5172C7.96608 12.2035 8.30277 11.7471 8.59604 11.1606Z" fill="#549BE4"/>
<path d="M9.97363 3.36793C10.1774 4.2096 10.2963 5.12658 10.3214 6.07676H12.9995C12.928 4.82925 12.506 3.64809 11.7809 2.64746C11.2514 2.93847 10.6409 3.18062 9.97363 3.36793Z" fill="#549BE4"/>
<path d="M6.88086 6.83887V9.09907C7.69922 9.12086 8.49335 9.21248 9.23463 9.36725C9.42394 8.58498 9.53502 7.72912 9.5597 6.83887H6.88086Z" fill="#549BE4"/>
<path d="M6.11927 6.07624V3.81603C5.30091 3.79425 4.50678 3.70263 3.76549 3.54785C3.57618 4.33013 3.46511 5.18599 3.44043 6.07624H6.11927Z" fill="#549BE4"/>
<path d="M3.23017 2.63543C3.36973 2.19912 3.53413 1.7894 3.72207 1.41352C3.94416 0.969364 4.19185 0.587038 4.45968 0.270508C3.50361 0.584677 2.62761 1.12096 1.89533 1.85324C1.83195 1.91662 1.7704 1.98135 1.70996 2.04684C2.16011 2.28137 2.67255 2.47883 3.23017 2.63543Z" fill="#549BE4"/>
<path d="M9.76954 10.2793C9.62998 10.7156 9.46558 11.1253 9.27765 11.5012C9.05555 11.9454 8.80786 12.3277 8.54004 12.6442C9.49611 12.3301 10.3721 11.7938 11.1044 11.0615C11.1678 10.9982 11.2293 10.9334 11.2898 10.8679C10.8396 10.6334 10.3272 10.4359 9.76954 10.2793Z" fill="#549BE4"/>
<path d="M6.11927 6.83887H3.44043C3.46511 7.72914 3.57618 8.58501 3.76549 9.36725C4.50676 9.21248 5.30091 9.12086 6.11927 9.09907V6.83887Z" fill="#549BE4"/>
<path d="M5.4043 12.5171C5.63721 12.7142 5.87636 12.8469 6.11877 12.915V9.86035C5.3708 9.88117 4.64721 9.9632 3.97266 10.1003C4.09645 10.4787 4.24033 10.8341 4.40359 11.1606C4.69688 11.7471 5.03355 12.2035 5.4043 12.5171Z" fill="#549BE4"/>
</g>
<defs>
<clipPath id="clip0">
<rect width="13" height="13" fill="white"/>
</clipPath>
</defs>
</svg>
