<svg width="13" height="13" viewBox="0 0 13 13" fill="none" xmlns="http://www.w3.org/2000/svg">
<g clip-path="url(#clip0)">
<path d="M9.23463 3.54834C8.49337 3.70311 7.69922 3.79473 6.88086 3.81652V6.07673H9.5597C9.53502 5.18648 9.42394 4.33059 9.23463 3.54834Z" fill="#549BE4"/>
<path d="M2.67813 6.07678C2.70325 5.12661 2.82214 4.20962 3.0259 3.36795C2.35863 3.18065 1.74812 2.9385 1.21866 2.64746C0.493498 3.64812 0.0714829 4.82927 0 6.07678H2.67813Z" fill="#549BE4"/>
<path d="M2.67813 6.83862H0C0.0714829 8.08613 0.493498 9.26729 1.21864 10.2679C1.74809 9.97691 2.35863 9.73476 3.0259 9.54746C2.82214 8.70579 2.70322 7.7888 2.67813 6.83862Z" fill="#549BE4"/>
<path d="M7.59533 0.397841C7.36242 0.200812 7.12327 0.0680801 6.88086 0V3.05464C7.62883 3.03382 8.35241 2.9518 9.02697 2.81467C8.90318 2.43631 8.7593 2.08093 8.59604 1.75444C8.30275 1.1679 7.96605 0.711451 7.59533 0.397841Z" fill="#549BE4"/>
<path d="M3.23017 10.2795C2.67255 10.4361 2.16011 10.6336 1.70996 10.8682C1.7704 10.9337 1.83195 10.9984 1.89533 11.0618C2.62761 11.7941 3.50358 12.3303 4.45968 12.6445C4.19185 12.3279 3.94416 11.9456 3.72207 11.5015C3.53413 11.1256 3.36976 10.7159 3.23017 10.2795Z" fill="#549BE4"/>
<path d="M4.40359 1.75444C4.24036 2.08093 4.09645 2.43631 3.97266 2.81467C4.64721 2.9518 5.3708 3.03382 6.11877 3.05464V0C5.87634 0.0681055 5.63721 0.200812 5.4043 0.397841C5.03355 0.711451 4.69688 1.1679 4.40359 1.75444Z" fill="#549BE4"/>
<path d="M10.3214 6.83862C10.2963 7.7888 10.1774 8.70579 9.97363 9.54746C10.6409 9.73476 11.2514 9.97691 11.7809 10.2679C12.506 9.26729 12.928 8.08616 12.9995 6.83862H10.3214Z" fill="#549BE4"/>
<path d="M9.76957 2.63568C10.3272 2.47908 10.8396 2.28162 11.2898 2.04706C11.2293 1.98157 11.1678 1.91684 11.1044 1.85346C10.3721 1.12121 9.49613 0.584921 8.54004 0.270752C8.80786 0.587308 9.05555 0.969608 9.27765 1.41377C9.46558 1.78964 9.62998 2.19939 9.76957 2.63568Z" fill="#549BE4"/>
<path d="M8.59604 11.1608C8.7593 10.8343 8.90318 10.4789 9.02697 10.1006C8.35242 9.96344 7.62883 9.88142 6.88086 9.8606V12.9152C7.12329 12.8472 7.36242 12.7145 7.59533 12.5174C7.96608 12.2038 8.30277 11.7474 8.59604 11.1608Z" fill="#549BE4"/>
<path d="M9.97363 3.36793C10.1774 4.2096 10.2963 5.12658 10.3214 6.07676H12.9995C12.928 4.82925 12.506 3.64809 11.7809 2.64746C11.2514 2.93847 10.6409 3.18062 9.97363 3.36793Z" fill="#549BE4"/>
<path d="M6.88086 6.83862V9.09883C7.69922 9.12062 8.49335 9.21224 9.23463 9.36701C9.42394 8.58474 9.53502 7.72887 9.5597 6.83862H6.88086Z" fill="#549BE4"/>
<path d="M6.11927 6.07673V3.81652C5.30091 3.79473 4.50678 3.70311 3.76549 3.54834C3.57618 4.33061 3.46511 5.18648 3.44043 6.07673H6.11927Z" fill="#549BE4"/>
<path d="M3.23017 2.63568C3.36973 2.19937 3.53413 1.78964 3.72207 1.41377C3.94416 0.969608 4.19185 0.587283 4.45968 0.270752C3.50361 0.584921 2.62761 1.12121 1.89533 1.85348C1.83195 1.91686 1.7704 1.98159 1.70996 2.04708C2.16011 2.28162 2.67255 2.47908 3.23017 2.63568Z" fill="#549BE4"/>
<path d="M9.76954 10.2795C9.62998 10.7159 9.46558 11.1256 9.27765 11.5015C9.05555 11.9456 8.80786 12.3279 8.54004 12.6445C9.49611 12.3303 10.3721 11.7941 11.1044 11.0618C11.1678 10.9984 11.2293 10.9337 11.2898 10.8682C10.8396 10.6336 10.3272 10.4361 9.76954 10.2795Z" fill="#549BE4"/>
<path d="M6.11927 6.83862H3.44043C3.46511 7.7289 3.57618 8.58476 3.76549 9.36701C4.50676 9.21224 5.30091 9.12062 6.11927 9.09883V6.83862Z" fill="#549BE4"/>
<path d="M5.4043 12.5176C5.63721 12.7147 5.87636 12.8474 6.11877 12.9155V9.86084C5.3708 9.88166 4.64721 9.96368 3.97266 10.1008C4.09645 10.4792 4.24033 10.8346 4.40359 11.1611C4.69688 11.7476 5.03355 12.204 5.4043 12.5176Z" fill="#549BE4"/>
</g>
<defs>
<clipPath id="clip0">
<rect width="13" height="13" fill="white"/>
</clipPath>
</defs>
</svg>
