<svg width="13" height="13" viewBox="0 0 13 13" fill="none" xmlns="http://www.w3.org/2000/svg">
<g clip-path="url(#clip0)">
<path d="M9.23463 3.54834C8.49337 3.70311 7.69922 3.79473 6.88086 3.81652V6.07672H9.5597C9.53502 5.18648 9.42394 4.33059 9.23463 3.54834Z" fill="#549BE4"/>
<path d="M2.67813 6.07676C2.70325 5.12658 2.82214 4.2096 3.0259 3.36793C2.35863 3.18063 1.74812 2.93847 1.21866 2.64744C0.493498 3.6481 0.0714829 4.82925 0 6.07676H2.67813Z" fill="#549BE4"/>
<path d="M2.67813 6.83854H0C0.0714829 8.08605 0.493498 9.2672 1.21864 10.2679C1.74809 9.97683 2.35863 9.73467 3.0259 9.54737C2.82214 8.7057 2.70322 7.78871 2.67813 6.83854Z" fill="#549BE4"/>
<path d="M7.59533 0.397841C7.36242 0.200812 7.12327 0.0680801 6.88086 0V3.05464C7.62883 3.03382 8.35241 2.9518 9.02697 2.81467C8.90318 2.43631 8.7593 2.08093 8.59604 1.75444C8.30275 1.1679 7.96605 0.711451 7.59533 0.397841Z" fill="#549BE4"/>
<path d="M3.23066 10.2796C2.67304 10.4362 2.1606 10.6336 1.71045 10.8682C1.77089 10.9337 1.83244 10.9984 1.89582 11.0618C2.6281 11.7941 3.50407 12.3304 4.46016 12.6445C4.19234 12.328 3.94465 11.9457 3.72256 11.5015C3.53462 11.1256 3.37025 10.7159 3.23066 10.2796Z" fill="#549BE4"/>
<path d="M4.40383 1.75444C4.2406 2.08093 4.09669 2.43631 3.9729 2.81467C4.64746 2.9518 5.37105 3.03382 6.11901 3.05464V0C5.87658 0.0681055 5.63745 0.200812 5.40454 0.397841C5.03379 0.711451 4.69713 1.1679 4.40383 1.75444Z" fill="#549BE4"/>
<path d="M10.3219 6.83854C10.2968 7.78871 10.1779 8.7057 9.97412 9.54737C10.6414 9.73467 11.2519 9.97683 11.7814 10.2679C12.5065 9.2672 12.9285 8.08607 13 6.83854H10.3219Z" fill="#549BE4"/>
<path d="M9.76932 2.63573C10.3269 2.47913 10.8394 2.28167 11.2895 2.04711C11.2291 1.98162 11.1675 1.91689 11.1041 1.85351C10.3719 1.12126 9.49589 0.584976 8.53979 0.270807C8.80762 0.587363 9.05531 0.969663 9.2774 1.41382C9.46534 1.7897 9.62974 2.19945 9.76932 2.63573Z" fill="#549BE4"/>
<path d="M8.59604 11.1609C8.7593 10.8344 8.90318 10.479 9.02697 10.1006C8.35242 9.96347 7.62883 9.88145 6.88086 9.86063V12.9153C7.12329 12.8472 7.36242 12.7145 7.59533 12.5174C7.96608 12.2038 8.30277 11.7474 8.59604 11.1609Z" fill="#549BE4"/>
<path d="M9.97412 3.36793C10.1779 4.2096 10.2968 5.12658 10.3219 6.07676H13C12.9285 4.82925 12.5065 3.6481 11.7814 2.64746C11.2519 2.93847 10.6414 3.18063 9.97412 3.36793Z" fill="#549BE4"/>
<path d="M6.88086 6.83854V9.09874C7.69922 9.12053 8.49335 9.21215 9.23463 9.36693C9.42394 8.58465 9.53502 7.72879 9.5597 6.83854H6.88086Z" fill="#549BE4"/>
<path d="M6.11903 6.07672V3.81652C5.30067 3.79473 4.50654 3.70311 3.76525 3.54834C3.57594 4.33061 3.46487 5.18648 3.44019 6.07672H6.11903Z" fill="#549BE4"/>
<path d="M3.23066 2.63573C3.37022 2.19942 3.53462 1.7897 3.72256 1.41382C3.94465 0.969663 4.19234 0.587337 4.46016 0.270807C3.5041 0.584976 2.6281 1.12126 1.89582 1.85354C1.83244 1.91692 1.77089 1.98165 1.71045 2.04714C2.1606 2.28167 2.67304 2.47913 3.23066 2.63573Z" fill="#549BE4"/>
<path d="M9.7693 10.2796C9.62974 10.7159 9.46534 11.1256 9.2774 11.5015C9.05531 11.9456 8.80762 12.328 8.53979 12.6445C9.49586 12.3304 10.3719 11.7941 11.1041 11.0618C11.1675 10.9984 11.2291 10.9337 11.2895 10.8682C10.8394 10.6336 10.3269 10.4362 9.7693 10.2796Z" fill="#549BE4"/>
<path d="M6.11903 6.83854H3.44019C3.46487 7.72881 3.57594 8.58468 3.76525 9.36693C4.50651 9.21215 5.30067 9.12053 6.11903 9.09874V6.83854Z" fill="#549BE4"/>
<path d="M5.40454 12.5176C5.63745 12.7146 5.87661 12.8473 6.11901 12.9154V9.86077C5.37105 9.88159 4.64746 9.96362 3.9729 10.1007C4.09669 10.4791 4.24057 10.8345 4.40383 11.161C4.69713 11.7475 5.03379 12.2039 5.40454 12.5176Z" fill="#549BE4"/>
</g>
<defs>
<clipPath id="clip0">
<rect width="13" height="13" fill="white"/>
</clipPath>
</defs>
</svg>
