<svg width="13" height="13" viewBox="0 0 13 13" fill="none" xmlns="http://www.w3.org/2000/svg">
<g clip-path="url(#clip0)">
<path d="M9.23476 3.54834C8.49349 3.70311 7.69934 3.79473 6.88098 3.81652V6.07673H9.55982C9.53514 5.18648 9.42407 4.33059 9.23476 3.54834Z" fill="#549BE4"/>
<path d="M2.67813 6.07678C2.70325 5.12661 2.82214 4.20962 3.0259 3.36795C2.35863 3.18065 1.74812 2.9385 1.21866 2.64746C0.493498 3.64812 0.0714829 4.82927 0 6.07678H2.67813Z" fill="#549BE4"/>
<path d="M2.67813 6.8385H0C0.0714829 8.08601 0.493498 9.26717 1.21864 10.2678C1.74809 9.97679 2.35863 9.73464 3.0259 9.54733C2.82214 8.70566 2.70322 7.78868 2.67813 6.8385Z" fill="#549BE4"/>
<path d="M7.59533 0.397841C7.36242 0.200812 7.12327 0.0680801 6.88086 0V3.05464C7.62883 3.03382 8.35241 2.9518 9.02697 2.81467C8.90318 2.43631 8.7593 2.08093 8.59604 1.75444C8.30275 1.1679 7.96605 0.711451 7.59533 0.397841Z" fill="#549BE4"/>
<path d="M3.23066 10.2795C2.67304 10.4361 2.1606 10.6336 1.71045 10.8682C1.77089 10.9337 1.83244 10.9984 1.89582 11.0618C2.6281 11.7941 3.50407 12.3303 4.46016 12.6445C4.19234 12.3279 3.94465 11.9456 3.72256 11.5015C3.53462 11.1256 3.37025 10.7159 3.23066 10.2795Z" fill="#549BE4"/>
<path d="M4.40383 1.75444C4.2406 2.08093 4.09669 2.43631 3.9729 2.81467C4.64746 2.9518 5.37105 3.03382 6.11901 3.05464V0C5.87658 0.0681055 5.63745 0.200812 5.40454 0.397841C5.03379 0.711451 4.69713 1.1679 4.40383 1.75444Z" fill="#549BE4"/>
<path d="M10.3219 6.8385C10.2968 7.78868 10.1779 8.70566 9.97412 9.54733C10.6414 9.73464 11.2519 9.97679 11.7814 10.2678C12.5065 9.26717 12.9285 8.08604 13 6.8385H10.3219Z" fill="#549BE4"/>
<path d="M9.76932 2.63568C10.3269 2.47908 10.8394 2.28162 11.2895 2.04706C11.2291 1.98157 11.1675 1.91684 11.1041 1.85346C10.3719 1.12121 9.49589 0.584921 8.53979 0.270752C8.80762 0.587308 9.05531 0.969608 9.2774 1.41377C9.46534 1.78964 9.62974 2.19939 9.76932 2.63568Z" fill="#549BE4"/>
<path d="M8.59616 11.1608C8.75942 10.8343 8.9033 10.4789 9.02709 10.1006C8.35254 9.96344 7.62895 9.88142 6.88098 9.8606V12.9152C7.12341 12.8472 7.36254 12.7145 7.59545 12.5174C7.9662 12.2038 8.30289 11.7474 8.59616 11.1608Z" fill="#549BE4"/>
<path d="M9.97412 3.36793C10.1779 4.2096 10.2968 5.12658 10.3219 6.07676H13C12.9285 4.82925 12.5065 3.64809 11.7814 2.64746C11.2519 2.93847 10.6414 3.18062 9.97412 3.36793Z" fill="#549BE4"/>
<path d="M6.88098 6.8385V9.09871C7.69934 9.12049 8.49347 9.21211 9.23476 9.36689C9.42407 8.58461 9.53514 7.72875 9.55982 6.8385H6.88098Z" fill="#549BE4"/>
<path d="M6.11903 6.07673V3.81652C5.30067 3.79473 4.50654 3.70311 3.76525 3.54834C3.57594 4.33061 3.46487 5.18648 3.44019 6.07673H6.11903Z" fill="#549BE4"/>
<path d="M3.23066 2.63568C3.37022 2.19937 3.53462 1.78964 3.72256 1.41377C3.94465 0.969608 4.19234 0.587283 4.46016 0.270752C3.5041 0.584921 2.6281 1.12121 1.89582 1.85348C1.83244 1.91686 1.77089 1.98159 1.71045 2.04708C2.1606 2.28162 2.67304 2.47908 3.23066 2.63568Z" fill="#549BE4"/>
<path d="M9.76942 10.2795C9.62986 10.7159 9.46546 11.1256 9.27752 11.5015C9.05543 11.9456 8.80774 12.3279 8.53992 12.6445C9.49598 12.3303 10.372 11.7941 11.1043 11.0618C11.1676 10.9984 11.2292 10.9337 11.2896 10.8682C10.8395 10.6336 10.327 10.4361 9.76942 10.2795Z" fill="#549BE4"/>
<path d="M6.11903 6.8385H3.44019C3.46487 7.72877 3.57594 8.58464 3.76525 9.36689C4.50651 9.21211 5.30067 9.12049 6.11903 9.09871V6.8385Z" fill="#549BE4"/>
<path d="M5.40454 12.5175C5.63745 12.7145 5.87661 12.8472 6.11901 12.9154V9.86072C5.37105 9.88154 4.64746 9.96356 3.9729 10.1007C4.09669 10.4791 4.24057 10.8345 4.40383 11.1609C4.69713 11.7475 5.03379 12.2039 5.40454 12.5175Z" fill="#549BE4"/>
</g>
<defs>
<clipPath id="clip0">
<rect width="13" height="13" fill="white"/>
</clipPath>
</defs>
</svg>
