<svg width="37" height="38" viewBox="0 0 37 38" fill="none" xmlns="http://www.w3.org/2000/svg">
<g clip-path="url(#clip0)">
<path d="M6.07029 35.625H29.7734C31.2101 35.625 32.375 34.4286 32.375 32.9531C32.375 31.4777 31.2101 30.2812 29.7734 30.2812H29.5462C28.9704 30.2812 28.4362 29.8769 28.3437 29.2932C28.2264 28.5493 28.7819 27.9062 29.4844 27.9062H32.5415C33.8983 27.9062 35.1159 26.8945 35.2523 25.5081C35.4084 23.9174 34.1828 22.5625 32.664 22.5625H30.7025C30.1266 22.5625 29.5925 22.1582 29.5 21.5745C29.3826 20.8305 29.9382 20.1875 30.6406 20.1875H33.6706C35.3286 20.1875 36.8167 18.9513 36.9838 17.2567C37.1752 15.3122 35.6767 13.6562 33.8203 13.6562H26.692C25.7531 13.6562 24.9108 12.9342 24.8617 11.9706C24.8096 10.9434 25.6051 10.0938 26.5937 10.0938H27.8893C29.5474 10.0938 31.0355 8.85756 31.2025 7.163C31.3939 5.21847 29.8954 3.5625 28.039 3.5625H6.07029C4.31395 3.5625 2.8906 5.02431 2.8906 6.82812C2.8906 8.63194 4.31395 10.0938 6.07029 10.0938H8.09373C8.73256 10.0938 9.24998 10.6252 9.24998 11.2812C9.24998 11.9373 8.73256 12.4688 8.09373 12.4688H2.7241C1.36724 12.4688 0.149711 13.4805 0.0132735 14.8663C-0.143398 16.4576 1.0828 17.8125 2.60154 17.8125H7.41732C8.3562 17.8125 9.19852 18.5345 9.24767 19.4982C9.2997 20.5253 8.5042 21.375 7.5156 21.375H4.45848C3.10162 21.375 1.88409 22.3867 1.74765 23.7726C1.59155 25.3638 2.81718 26.7188 4.33591 26.7188H8.03187C8.60768 26.7188 9.14187 27.1231 9.23437 27.7068C9.35173 28.4507 8.79615 29.0938 8.09373 29.0938H6.07029C4.31395 29.0938 2.8906 30.5556 2.8906 32.3594C2.8906 34.1632 4.31395 35.625 6.07029 35.625Z" fill="url(#paint0_radial)"/>
<path d="M33.3387 11.3157C32.5062 11.6084 31.6061 11.7735 30.6585 11.8833C31.5934 11.4053 32.2397 10.7018 32.8439 9.84022C33.1896 9.34741 32.6537 8.70319 32.1212 8.968C31.1742 9.43884 30.2596 9.78856 29.1074 9.98984C27.9807 8.94959 26.4949 8.3125 24.8594 8.3125C22.4833 8.3125 20.4136 9.64844 19.3267 11.6256C18.8006 12.5756 18.5 13.6741 18.5 14.8438C18.5 15.2457 18.5474 15.6346 18.615 16.0164C13.505 15.8602 9.22167 13.1504 6.78487 9.74166C6.51431 9.36344 5.94891 9.44419 5.78125 9.88059C5.52283 10.5521 5.20312 11.2812 5.20312 12.4688C5.20312 12.54 5.20313 12.6053 5.20891 12.6706C5.23203 13.4425 5.39969 14.1788 5.68875 14.8438C6.23219 16.1322 7.215 17.1831 8.44641 17.8006C8.33078 17.8066 8.21516 17.8125 8.09375 17.8125C6.9375 17.8125 6.55709 17.4058 5.92983 17.2383C5.53497 17.1327 5.14936 17.4711 5.20891 17.8855C5.39853 19.2042 6.06684 20.5924 6.96005 21.4759C7.91973 22.4378 9.20317 23.0553 10.6311 23.1444C9.86859 23.5303 9.00719 23.75 8.09375 23.75H7.51562C7.07856 23.75 6.80627 24.225 7.00341 24.6252C7.97292 26.5947 10.2184 27.9086 12.6239 27.9003C10.3057 29.4013 7.56823 30.2812 4.625 30.2812H4.04688C3.72775 30.2812 3.46875 30.5473 3.46875 30.875C3.46875 31.1469 3.65028 31.3666 3.89309 31.4367L3.89194 31.4468C3.89194 31.4468 8.24522 33.25 13.2969 33.25C23.0845 33.25 31.0395 25.1928 31.213 15.1822C31.2188 15.0694 31.2188 14.9566 31.2188 14.8438C31.2188 14.7309 31.2188 14.6181 31.213 14.5053C31.2049 14.342 31.1852 14.1817 31.1656 14.0214C32.2357 13.6717 33.1884 13.0963 33.9469 12.2841C34.3649 11.837 33.9099 11.115 33.3387 11.3157Z" fill="url(#paint1_linear)"/>
<g clip-path="url(#clip1)">
<path d="M24 18.7565L19.1875 21.5984V18.7565L13 22.4103L19.1875 26.0642V23.2223L24 26.0642V18.7565Z" fill="#E4FAFF"/>
</g>
</g>
<defs>
<radialGradient id="paint0_radial" cx="0" cy="0" r="1" gradientUnits="userSpaceOnUse" gradientTransform="translate(18.5 19.5938) scale(17.116 17.5786)">
<stop stop-color="#C5F1FF"/>
<stop offset="0.35" stop-color="#CDF3FF"/>
<stop offset="0.907" stop-color="#E4FAFF"/>
<stop offset="1" stop-color="#E9FBFF"/>
</radialGradient>
<linearGradient id="paint1_linear" x1="18.7891" y1="38.0606" x2="18.7891" y2="13.1231" gradientUnits="userSpaceOnUse">
<stop stop-color="#155CDE"/>
<stop offset="0.278" stop-color="#1F7FE5"/>
<stop offset="0.569" stop-color="#279CEB"/>
<stop offset="0.82" stop-color="#2CAFEF"/>
<stop offset="1" stop-color="#2EB5F0"/>
</linearGradient>
<clipPath id="clip0">
<rect width="37" height="38" fill="white"/>
</clipPath>
<clipPath id="clip1">
<rect width="11" height="9.74359" fill="white" transform="translate(13 17.5385)"/>
</clipPath>
</defs>
</svg>
