<svg width="132" height="16" viewBox="0 0 132 16" fill="none" xmlns="http://www.w3.org/2000/svg">
<path d="M5.04248 12L1.93701 3.05713H1.87842C1.96143 4.38525 2.00293 5.63037 2.00293 6.79248V12H0.413574V1.29199H2.88184L5.85547 9.81006H5.89941L8.96094 1.29199H11.4365V12H9.75195V6.70459C9.75195 6.17236 9.76416 5.479 9.78857 4.62451C9.81787 3.77002 9.84229 3.25244 9.86182 3.07178H9.80322L6.58789 12H5.04248ZM12.8428 3.89941H14.7178L16.3657 8.4917C16.6147 9.146 16.7808 9.76123 16.8638 10.3374H16.9224C16.9663 10.0688 17.0469 9.74414 17.1641 9.36328C17.2812 8.97754 17.9014 7.15625 19.0244 3.89941H20.8848L17.4204 13.0767C16.7905 14.7612 15.7407 15.6035 14.271 15.6035C13.8901 15.6035 13.519 15.562 13.1577 15.479V14.1167C13.4165 14.1753 13.7119 14.2046 14.0439 14.2046C14.874 14.2046 15.4575 13.7236 15.7944 12.7617L16.0947 12L12.8428 3.89941ZM29.8936 12H28.1431V2.79346H24.9937V1.29199H33.043V2.79346H29.8936V12ZM41.1509 12L40.1035 8.2207C39.9766 7.82031 39.7471 6.89014 39.415 5.43018H39.3491C39.0659 6.74854 38.8413 7.68359 38.6753 8.23535L37.5986 12H35.6943L33.4238 3.89941H35.1816L36.2144 7.89111C36.4487 8.87744 36.6147 9.72217 36.7124 10.4253H36.7563C36.8052 10.0688 36.8784 9.66113 36.9761 9.20215C37.0786 8.73828 37.1665 8.3916 37.2397 8.16211L38.4702 3.89941H40.3599L41.5537 8.16211C41.627 8.40137 41.7173 8.76758 41.8247 9.26074C41.937 9.75391 42.0029 10.1372 42.0225 10.4106H42.0811C42.1543 9.81006 42.3252 8.97021 42.5938 7.89111L43.6411 3.89941H45.3696L43.0845 12H41.1509ZM48.4897 12H46.7686V3.89941H48.4897V12ZM46.666 1.75342C46.666 1.4458 46.749 1.20898 46.915 1.04297C47.0859 0.876953 47.3276 0.793945 47.6401 0.793945C47.9429 0.793945 48.1772 0.876953 48.3433 1.04297C48.5142 1.20898 48.5996 1.4458 48.5996 1.75342C48.5996 2.04639 48.5142 2.27832 48.3433 2.44922C48.1772 2.61523 47.9429 2.69824 47.6401 2.69824C47.3276 2.69824 47.0859 2.61523 46.915 2.44922C46.749 2.27832 46.666 2.04639 46.666 1.75342ZM53.9756 10.7549C54.3955 10.7549 54.8154 10.689 55.2354 10.5571V11.8535C55.0449 11.9365 54.7983 12.0049 54.4956 12.0586C54.1978 12.1172 53.8877 12.1465 53.5654 12.1465C51.9346 12.1465 51.1191 11.2871 51.1191 9.56836V5.20312H50.0132V4.44141L51.1997 3.81152L51.7856 2.09766H52.8477V3.89941H55.1548V5.20312H52.8477V9.53906C52.8477 9.9541 52.9502 10.2617 53.1553 10.4619C53.3652 10.6572 53.6387 10.7549 53.9756 10.7549ZM59.8789 10.7549C60.2988 10.7549 60.7188 10.689 61.1387 10.5571V11.8535C60.9482 11.9365 60.7017 12.0049 60.3989 12.0586C60.1011 12.1172 59.791 12.1465 59.4688 12.1465C57.8379 12.1465 57.0225 11.2871 57.0225 9.56836V5.20312H55.9165V4.44141L57.103 3.81152L57.689 2.09766H58.751V3.89941H61.0581V5.20312H58.751V9.53906C58.751 9.9541 58.8535 10.2617 59.0586 10.4619C59.2686 10.6572 59.542 10.7549 59.8789 10.7549ZM66.3022 12.1465C65.0425 12.1465 64.0562 11.7803 63.3433 11.0479C62.6353 10.3105 62.2812 9.29736 62.2812 8.0083C62.2812 6.68506 62.6108 5.64502 63.27 4.88818C63.9292 4.13135 64.835 3.75293 65.9873 3.75293C67.0566 3.75293 67.9014 4.07764 68.5215 4.72705C69.1416 5.37646 69.4517 6.27002 69.4517 7.40771V8.33789H64.0537C64.0781 9.12402 64.2905 9.72949 64.6909 10.1543C65.0913 10.5742 65.6553 10.7842 66.3828 10.7842C66.8613 10.7842 67.3057 10.7402 67.7158 10.6523C68.1309 10.5596 68.5752 10.4082 69.0488 10.1982V11.5972C68.6289 11.7974 68.2041 11.939 67.7744 12.022C67.3447 12.105 66.854 12.1465 66.3022 12.1465ZM65.9873 5.05664C65.4404 5.05664 65.001 5.22998 64.6689 5.57666C64.3418 5.92334 64.1465 6.42871 64.083 7.09277H67.7598C67.75 6.42383 67.5889 5.91846 67.2764 5.57666C66.9639 5.22998 66.5342 5.05664 65.9873 5.05664ZM75.5161 3.75293C75.8628 3.75293 76.1484 3.77734 76.373 3.82617L76.2046 5.43018C75.9604 5.37158 75.7065 5.34229 75.4429 5.34229C74.7544 5.34229 74.1953 5.56689 73.7656 6.01611C73.3408 6.46533 73.1284 7.04883 73.1284 7.7666V12H71.4072V3.89941H72.7549L72.9819 5.32764H73.0698C73.3384 4.84424 73.6875 4.46094 74.1172 4.17773C74.5518 3.89453 75.0181 3.75293 75.5161 3.75293ZM93.1089 12.1465C91.8491 12.1465 90.8628 11.7803 90.1499 11.0479C89.4419 10.3105 89.0879 9.29736 89.0879 8.0083C89.0879 6.68506 89.4175 5.64502 90.0767 4.88818C90.7358 4.13135 91.6416 3.75293 92.7939 3.75293C93.8633 3.75293 94.708 4.07764 95.3281 4.72705C95.9482 5.37646 96.2583 6.27002 96.2583 7.40771V8.33789H90.8604C90.8848 9.12402 91.0972 9.72949 91.4976 10.1543C91.8979 10.5742 92.4619 10.7842 93.1895 10.7842C93.668 10.7842 94.1123 10.7402 94.5225 10.6523C94.9375 10.5596 95.3818 10.4082 95.8555 10.1982V11.5972C95.4355 11.7974 95.0107 11.939 94.5811 12.022C94.1514 12.105 93.6606 12.1465 93.1089 12.1465ZM92.7939 5.05664C92.2471 5.05664 91.8076 5.22998 91.4756 5.57666C91.1484 5.92334 90.9531 6.42871 90.8896 7.09277H94.5664C94.5566 6.42383 94.3955 5.91846 94.083 5.57666C93.7705 5.22998 93.3408 5.05664 92.7939 5.05664ZM104.857 12L103.81 8.2207C103.683 7.82031 103.453 6.89014 103.121 5.43018H103.055C102.772 6.74854 102.547 7.68359 102.381 8.23535L101.305 12H99.4004L97.1299 3.89941H98.8877L99.9204 7.89111C100.155 8.87744 100.321 9.72217 100.418 10.4253H100.462C100.511 10.0688 100.584 9.66113 100.682 9.20215C100.785 8.73828 100.873 8.3916 100.946 8.16211L102.176 3.89941H104.066L105.26 8.16211C105.333 8.40137 105.423 8.76758 105.531 9.26074C105.643 9.75391 105.709 10.1372 105.729 10.4106H105.787C105.86 9.81006 106.031 8.97021 106.3 7.89111L107.347 3.89941H109.076L106.791 12H104.857ZM112.196 12H110.475V3.89941H112.196V12ZM110.372 1.75342C110.372 1.4458 110.455 1.20898 110.621 1.04297C110.792 0.876953 111.034 0.793945 111.346 0.793945C111.649 0.793945 111.883 0.876953 112.049 1.04297C112.22 1.20898 112.306 1.4458 112.306 1.75342C112.306 2.04639 112.22 2.27832 112.049 2.44922C111.883 2.61523 111.649 2.69824 111.346 2.69824C111.034 2.69824 110.792 2.61523 110.621 2.44922C110.455 2.27832 110.372 2.04639 110.372 1.75342ZM121.791 12H120.062V7.01953C120.062 6.39453 119.935 5.92822 119.681 5.62061C119.432 5.31299 119.034 5.15918 118.487 5.15918C117.76 5.15918 117.228 5.37402 116.891 5.80371C116.554 6.2334 116.385 6.95361 116.385 7.96436V12H114.664V3.89941H116.012L116.253 4.96143H116.341C116.585 4.57568 116.932 4.27783 117.381 4.06787C117.831 3.85791 118.329 3.75293 118.875 3.75293C120.819 3.75293 121.791 4.7417 121.791 6.71924V12ZM126.917 12.1465C125.907 12.1465 125.118 11.7803 124.552 11.0479C123.985 10.3154 123.702 9.2876 123.702 7.96436C123.702 6.63623 123.988 5.60352 124.559 4.86621C125.135 4.12402 125.931 3.75293 126.947 3.75293C128.011 3.75293 128.822 4.146 129.378 4.93213H129.466C129.383 4.35107 129.342 3.89209 129.342 3.55518V0.603516H131.07V12H129.723L129.422 10.938H129.342C128.79 11.7437 127.982 12.1465 126.917 12.1465ZM127.379 10.7549C128.087 10.7549 128.602 10.5571 128.924 10.1616C129.247 9.76123 129.413 9.11426 129.422 8.2207V7.979C129.422 6.9585 129.256 6.2334 128.924 5.80371C128.592 5.37402 128.072 5.15918 127.364 5.15918C126.759 5.15918 126.292 5.40576 125.965 5.89893C125.638 6.38721 125.475 7.08545 125.475 7.99365C125.475 8.89209 125.633 9.57812 125.951 10.0518C126.268 10.5205 126.744 10.7549 127.379 10.7549Z" fill="#2AA3EF"/>
</svg>
