<svg width="156" height="16" viewBox="0 0 156 16" fill="none" xmlns="http://www.w3.org/2000/svg">
<path d="M4.047 4.056H0.285V1.7H10.241V4.056H6.479V15H4.047V4.056ZM9.26324 5.5H11.5622L13.1962 12.131L14.9822 5.69H16.9582L18.7252 12.131L20.3782 5.5H22.6772L19.9032 15H17.9272L15.9702 8.806L14.0132 15H12.0372L9.26324 5.5ZM28.429 15.19C27.327 15.19 26.3834 14.9683 25.598 14.525C24.8254 14.069 24.2427 13.4673 23.85 12.72C23.47 11.96 23.28 11.1177 23.28 10.193C23.28 9.30633 23.4637 8.49567 23.831 7.761C24.1984 7.02633 24.7304 6.44367 25.427 6.013C26.1237 5.56967 26.9534 5.348 27.916 5.348C28.8027 5.348 29.55 5.53167 30.158 5.899C30.7787 6.26633 31.241 6.76033 31.545 7.381C31.8617 8.00167 32.02 8.69833 32.02 9.471C32.02 9.851 31.9694 10.2817 31.868 10.763H25.731C25.8577 11.599 26.187 12.226 26.719 12.644C27.251 13.0493 27.8907 13.252 28.638 13.252C29.664 13.252 30.614 12.9923 31.488 12.473L31.602 14.468C31.1967 14.6833 30.7217 14.8607 30.177 15C29.645 15.1267 29.0624 15.19 28.429 15.19ZM29.626 9.167C29.626 8.673 29.4867 8.236 29.208 7.856C28.9294 7.476 28.4987 7.286 27.916 7.286C27.3334 7.286 26.8647 7.457 26.51 7.799C26.1554 8.141 25.9147 8.597 25.788 9.167H29.626ZM38.2074 15.19C37.1054 15.19 36.1617 14.9683 35.3764 14.525C34.6037 14.069 34.021 13.4673 33.6284 12.72C33.2484 11.96 33.0584 11.1177 33.0584 10.193C33.0584 9.30633 33.242 8.49567 33.6094 7.761C33.9767 7.02633 34.5087 6.44367 35.2054 6.013C35.902 5.56967 36.7317 5.348 37.6944 5.348C38.581 5.348 39.3284 5.53167 39.9364 5.899C40.557 6.26633 41.0194 6.76033 41.3234 7.381C41.64 8.00167 41.7984 8.69833 41.7984 9.471C41.7984 9.851 41.7477 10.2817 41.6464 10.763H35.5094C35.636 11.599 35.9654 12.226 36.4974 12.644C37.0294 13.0493 37.669 13.252 38.4164 13.252C39.4424 13.252 40.3924 12.9923 41.2664 12.473L41.3804 14.468C40.975 14.6833 40.5 14.8607 39.9554 15C39.4234 15.1267 38.8407 15.19 38.2074 15.19ZM39.4044 9.167C39.4044 8.673 39.265 8.236 38.9864 7.856C38.7077 7.476 38.277 7.286 37.6944 7.286C37.1117 7.286 36.643 7.457 36.2884 7.799C35.9337 8.141 35.693 8.597 35.5664 9.167H39.4044ZM46.5037 15.19C45.6677 15.19 45.0344 14.9493 44.6037 14.468C44.173 13.974 43.9577 13.385 43.9577 12.701V7.438H42.6087L42.8177 5.5H43.9577V3.41L46.3137 3.163V5.5H48.4037V7.438H46.3137V11.732C46.3137 12.2387 46.339 12.5933 46.3897 12.796C46.453 12.986 46.5734 13.1127 46.7507 13.176C46.9407 13.2267 47.2764 13.252 47.7577 13.252H48.4037L48.1947 15.19H46.5037ZM52.6359 15.19C52.0279 15.19 51.4706 15.133 50.9639 15.019C50.4699 14.905 49.9569 14.7277 49.4249 14.487L49.6339 12.473C50.1659 12.7897 50.6599 13.0303 51.1159 13.195C51.5846 13.347 52.0659 13.423 52.5599 13.423C53.5226 13.423 54.0039 13.1063 54.0039 12.473C54.0039 12.131 53.8773 11.8713 53.6239 11.694C53.3706 11.504 52.9146 11.2823 52.2559 11.029C51.3186 10.687 50.6283 10.3007 50.1849 9.87C49.7416 9.42667 49.5199 8.83133 49.5199 8.084C49.5199 7.26067 49.8366 6.59567 50.4699 6.089C51.1033 5.56967 51.9583 5.31 53.0349 5.31C54.1116 5.31 55.0933 5.557 55.9799 6.051L55.7709 8.065C55.2896 7.73567 54.8336 7.48233 54.4029 7.305C53.9849 7.12767 53.5416 7.039 53.0729 7.039C52.6676 7.039 52.3509 7.12133 52.1229 7.286C51.9076 7.45067 51.7999 7.685 51.7999 7.989C51.7999 8.22967 51.8633 8.426 51.9899 8.578C52.1293 8.73 52.3193 8.86933 52.5599 8.996C52.8006 9.11 53.1996 9.27467 53.7569 9.49C54.6816 9.84467 55.3466 10.2373 55.7519 10.668C56.1573 11.086 56.3599 11.6497 56.3599 12.359C56.3599 13.2583 56.0369 13.955 55.3909 14.449C54.7449 14.943 53.8266 15.19 52.6359 15.19ZM62.8097 7.438H61.4607L61.6697 5.5H62.8097V3.486C62.8097 2.63733 63.0567 1.97233 63.5507 1.491C64.0574 0.996999 64.773 0.749999 65.6977 0.749999C66.217 0.749999 66.73 0.806999 67.2367 0.920999L67.0277 2.821C66.8124 2.75767 66.5654 2.726 66.2867 2.726C65.5394 2.726 65.1657 3.11867 65.1657 3.904V5.5H67.2557V7.438H65.1657V15H62.8097V7.438ZM68.6967 5.5H70.9007L70.9577 6.507C71.2364 6.19033 71.5911 5.91167 72.0217 5.671C72.4651 5.43033 72.9274 5.31 73.4087 5.31C73.5607 5.31 73.7001 5.32267 73.8267 5.348L73.6557 7.666C73.4151 7.60267 73.1427 7.571 72.8387 7.571C72.4461 7.571 72.0851 7.666 71.7557 7.856C71.4264 8.03333 71.1921 8.255 71.0527 8.521V15H68.6967V5.5ZM79.1142 15.19C78.1136 15.19 77.2459 14.9683 76.5112 14.525C75.7766 14.0817 75.2129 13.4863 74.8202 12.739C74.4276 11.9917 74.2312 11.1683 74.2312 10.269C74.2312 9.36967 74.4276 8.54 74.8202 7.78C75.2129 7.02 75.7766 6.41833 76.5112 5.975C77.2459 5.53167 78.1136 5.31 79.1142 5.31C80.1149 5.31 80.9826 5.53167 81.7172 5.975C82.4519 6.41833 83.0156 7.02 83.4082 7.78C83.8009 8.54 83.9972 9.36967 83.9972 10.269C83.9972 11.1683 83.8009 11.9917 83.4082 12.739C83.0156 13.4863 82.4519 14.0817 81.7172 14.525C80.9826 14.9683 80.1149 15.19 79.1142 15.19ZM79.1142 13.252C79.8869 13.252 80.4886 12.9797 80.9192 12.435C81.3626 11.8903 81.5842 11.1683 81.5842 10.269C81.5842 9.357 81.3626 8.62867 80.9192 8.084C80.4886 7.52667 79.8869 7.248 79.1142 7.248C78.3416 7.248 77.7336 7.52667 77.2902 8.084C76.8596 8.62867 76.6442 9.357 76.6442 10.269C76.6442 11.1683 76.8596 11.8903 77.2902 12.435C77.7336 12.9797 78.3416 13.252 79.1142 13.252ZM96.2962 5.348C97.5628 5.348 98.5002 5.73433 99.1082 6.507C99.7288 7.267 100.039 8.33733 100.039 9.718V15H97.6832V9.889C97.6832 8.98967 97.5438 8.331 97.2652 7.913C96.9865 7.495 96.5305 7.286 95.8972 7.286C95.2765 7.286 94.8078 7.50133 94.4912 7.932C94.1745 8.35 94.0162 8.94533 94.0162 9.718V15H91.6602V9.889C91.6602 8.98967 91.5145 8.331 91.2232 7.913C90.9318 7.495 90.4695 7.286 89.8362 7.286C89.0888 7.286 88.4745 7.55833 87.9932 8.103V15H85.6372V5.5H87.6512L87.7272 6.26C88.5885 5.652 89.5195 5.348 90.5202 5.348C91.7362 5.348 92.6418 5.785 93.2372 6.659C93.5665 6.241 93.9972 5.918 94.5292 5.69C95.0612 5.462 95.6502 5.348 96.2962 5.348ZM106.779 1.7H109.211V6.963H115.291V1.7H117.723V15H115.291V9.243H109.211V15H106.779V1.7ZM124.351 15.19C123.35 15.19 122.482 14.9683 121.748 14.525C121.013 14.0817 120.449 13.4863 120.057 12.739C119.664 11.9917 119.468 11.1683 119.468 10.269C119.468 9.36967 119.664 8.54 120.057 7.78C120.449 7.02 121.013 6.41833 121.748 5.975C122.482 5.53167 123.35 5.31 124.351 5.31C125.351 5.31 126.219 5.53167 126.954 5.975C127.688 6.41833 128.252 7.02 128.645 7.78C129.037 8.54 129.234 9.36967 129.234 10.269C129.234 11.1683 129.037 11.9917 128.645 12.739C128.252 13.4863 127.688 14.0817 126.954 14.525C126.219 14.9683 125.351 15.19 124.351 15.19ZM124.351 13.252C125.123 13.252 125.725 12.9797 126.156 12.435C126.599 11.8903 126.821 11.1683 126.821 10.269C126.821 9.357 126.599 8.62867 126.156 8.084C125.725 7.52667 125.123 7.248 124.351 7.248C123.578 7.248 122.97 7.52667 122.527 8.084C122.096 8.62867 121.881 9.357 121.881 10.269C121.881 11.1683 122.096 11.8903 122.527 12.435C122.97 12.9797 123.578 13.252 124.351 13.252ZM141.532 5.348C142.799 5.348 143.736 5.73433 144.344 6.507C144.965 7.267 145.275 8.33733 145.275 9.718V15H142.919V9.889C142.919 8.98967 142.78 8.331 142.501 7.913C142.223 7.495 141.767 7.286 141.133 7.286C140.513 7.286 140.044 7.50133 139.727 7.932C139.411 8.35 139.252 8.94533 139.252 9.718V15H136.896V9.889C136.896 8.98967 136.751 8.331 136.459 7.913C136.168 7.495 135.706 7.286 135.072 7.286C134.325 7.286 133.711 7.55833 133.229 8.103V15H130.873V5.5H132.887L132.963 6.26C133.825 5.652 134.756 5.348 135.756 5.348C136.972 5.348 137.878 5.785 138.473 6.659C138.803 6.241 139.233 5.918 139.765 5.69C140.297 5.462 140.886 5.348 141.532 5.348ZM151.966 15.19C150.864 15.19 149.92 14.9683 149.135 14.525C148.362 14.069 147.78 13.4673 147.387 12.72C147.007 11.96 146.817 11.1177 146.817 10.193C146.817 9.30633 147.001 8.49567 147.368 7.761C147.735 7.02633 148.267 6.44367 148.964 6.013C149.661 5.56967 150.49 5.348 151.453 5.348C152.34 5.348 153.087 5.53167 153.695 5.899C154.316 6.26633 154.778 6.76033 155.082 7.381C155.399 8.00167 155.557 8.69833 155.557 9.471C155.557 9.851 155.506 10.2817 155.405 10.763H149.268C149.395 11.599 149.724 12.226 150.256 12.644C150.788 13.0493 151.428 13.252 152.175 13.252C153.201 13.252 154.151 12.9923 155.025 12.473L155.139 14.468C154.734 14.6833 154.259 14.8607 153.714 15C153.182 15.1267 152.599 15.19 151.966 15.19ZM153.163 9.167C153.163 8.673 153.024 8.236 152.745 7.856C152.466 7.476 152.036 7.286 151.453 7.286C150.87 7.286 150.402 7.457 150.047 7.799C149.692 8.141 149.452 8.597 149.325 9.167H153.163Z" fill="#00C3E6"/>
</svg>
